<svg width="600" height="900" viewBox="0 0 600 900" fill="none" xmlns="http://www.w3.org/2000/svg">
<g clip-path="url(#clip0_125_21)">
<path d="M600 0H0V900H600V0Z" fill="white"/>
<path d="M189 973C239.81 973 281 931.81 281 881C281 830.19 239.81 789 189 789C138.19 789 97 830.19 97 881C97 931.81 138.19 973 189 973Z" fill="#BEBEBE"/>
<path d="M390 106C393.314 106 396 103.314 396 100C396 96.6863 393.314 94 390 94C386.686 94 384 96.6863 384 100C384 103.314 386.686 106 390 106Z" fill="#BEBEBE"/>
<path d="M117 436C161.735 436 198 399.735 198 355C198 310.265 161.735 274 117 274C72.2649 274 36 310.265 36 355C36 399.735 72.2649 436 117 436Z" fill="#BEBEBE"/>
<path d="M121 65C150.271 65 174 41.2711 174 12C174 -17.2711 150.271 -41 121 -41C91.7289 -41 68 -17.2711 68 12C68 41.2711 91.7289 65 121 65Z" fill="#BEBEBE"/>
<path d="M385 596C430.287 596 467 559.287 467 514C467 468.713 430.287 432 385 432C339.713 432 303 468.713 303 514C303 559.287 339.713 596 385 596Z" fill="#BEBEBE"/>
</g>
<defs>
<clipPath id="clip0_125_21">
<rect width="600" height="900" fill="white"/>
</clipPath>
</defs>
</svg>
