<svg width="675" height="900" viewBox="0 0 675 900" fill="none" xmlns="http://www.w3.org/2000/svg">
<g clip-path="url(#clip0_125_8)">
<path d="M675 0H0V900H675V0Z" fill="white"/>
<path d="M675 253.1C651.1 230.5 627.1 207.9 614.1 187.4C601.1 166.8 599 148.4 567.4 148.1C535.8 147.7 474.8 165.4 470.2 148.8C465.7 132.2 517.7 81.2 519 50.7C520.4 20.2 471.1 10.1 421.9 0H675V253.1Z" fill="#EBE7E7"/>
<path d="M0 646.9C17.5 681.5 35.1 716.2 55 730.7C74.9 745.2 97.2 739.6 111.1 747.1C125 754.6 130.5 775.3 154.5 787.7C178.6 800.2 221.2 804.4 240.7 821.8C260.3 839.1 256.7 869.6 253.1 900H0V646.9Z" fill="#DCDCDC"/>
</g>
<defs>
<clipPath id="clip0_125_8">
<rect width="675" height="900" fill="white"/>
</clipPath>
</defs>
</svg>
