<svg width="675" height="900" viewBox="0 0 675 900" fill="none" xmlns="http://www.w3.org/2000/svg">
<g clip-path="url(#clip0_124_2)">
<path d="M675 0H0V900H675V0Z" fill="white"/>
<path d="M281.3 900.001C303 879.701 324.7 859.301 339.2 840.801C353.6 822.301 360.8 805.601 363 786.401C365.3 767.301 362.5 745.701 358.9 717.501C355.3 689.301 350.7 654.301 373.4 646.901C396.1 639.501 446.1 659.501 470.6 656.401C495.1 653.301 494.2 627.101 501 598.601C507.8 570.101 522.4 539.301 544 540.101C565.6 540.901 594.3 573.401 617.3 573.001C640.4 572.701 657.7 539.501 675 506.301V900.001H281.3Z" fill="#232323"/>
<path d="M393.8 0C384.1 21.1 374.4 42.2 373.2 65.8C372 89.4 379.3 115.5 370 134.7C360.7 153.8 334.8 166 320.4 185C306.1 204 303.3 230 284.2 238.5C265.1 246.9 229.7 237.9 215.3 256.6C201 275.3 207.6 321.7 192 332.6C176.4 343.4 138.4 318.9 112.9 310.1C87.3 301.3 74.1 308.4 57.3 325C40.6 341.6 20.3 367.7 0 393.8V0H393.8Z" fill="#232323"/>
</g>
<defs>
<clipPath id="clip0_124_2">
<rect width="675" height="900" fill="white"/>
</clipPath>
</defs>
</svg>
