<svg id="visual" viewBox="0 0 675 900" width="675" height="900" xmlns="http://www.w3.org/2000/svg" xmlns:xlink="http://www.w3.org/1999/xlink" version="1.1"><path d="M0 298L37.5 263.5C75 229 150 160 225 155.5C300 151 375 211 450 211C525 211 600 151 637.5 121L675 91L675 0L637.5 0C600 0 525 0 450 0C375 0 300 0 225 0C150 0 75 0 37.5 0L0 0Z" fill="#120d25"></path><path d="M0 451L37.5 416.5C75 382 150 313 225 307C300 301 375 358 450 352C525 346 600 277 637.5 242.5L675 208L675 89L637.5 119C600 149 525 209 450 209C375 209 300 149 225 153.5C150 158 75 227 37.5 261.5L0 296Z" fill="#151030"></path><path d="M0 460L37.5 442C75 424 150 388 225 389.5C300 391 375 430 450 409C525 388 600 307 637.5 266.5L675 226L675 206L637.5 240.5C600 275 525 344 450 350C375 356 300 299 225 305C150 311 75 380 37.5 414.5L0 449Z" fill="#30285f"></path><path d="M0 775L37.5 757C75 739 150 703 225 656.5C300 610 375 553 450 536.5C525 520 600 544 637.5 556L675 568L675 224L637.5 264.5C600 305 525 386 450 407C375 428 300 389 225 387.5C150 386 75 422 37.5 440L0 458Z" fill="#30285f"></path><path d="M0 856L37.5 833.5C75 811 150 766 225 730C300 694 375 667 450 647.5C525 628 600 616 637.5 610L675 604L675 566L637.5 554C600 542 525 518 450 534.5C375 551 300 608 225 654.5C150 701 75 737 37.5 755L0 773Z" fill="#151030"></path><path d="M0 901L37.5 901C75 901 150 901 225 901C300 901 375 901 450 901C525 901 600 901 637.5 901L675 901L675 602L637.5 608C600 614 525 626 450 645.5C375 665 300 692 225 728C150 764 75 809 37.5 831.5L0 854Z" fill="#120d25"></path></svg>