<svg id="svg" version="1.1" xmlns="http://www.w3.org/2000/svg" xmlns:xlink="http://www.w3.org/1999/xlink" width="400" height="400" viewBox="0, 0, 400,400"><g id="svgg"><path id="path0" d="M151.489 38.533 C 151.489 38.680,151.719 39.220,152.000 39.733 C 152.281 40.247,152.511 40.547,152.511 40.400 C 152.511 40.253,152.281 39.713,152.000 39.200 C 151.719 38.687,151.489 38.387,151.489 38.533 M152.828 41.467 C 152.828 41.613,153.535 43.113,154.400 44.800 C 155.265 46.487,155.972 47.747,155.972 47.600 C 155.972 47.453,155.265 45.953,154.400 44.267 C 153.535 42.580,152.828 41.320,152.828 41.467 M156.027 48.133 C 156.027 48.280,156.675 49.660,157.467 51.200 C 158.258 52.740,158.906 53.880,158.906 53.733 C 158.906 53.587,158.258 52.207,157.467 50.667 C 156.675 49.127,156.027 47.987,156.027 48.133 M159.278 54.933 C 159.498 55.447,160.576 57.727,161.674 60.000 C 165.861 68.668,176.620 91.128,177.225 92.464 L 177.857 93.861 163.037 93.686 L 148.217 93.512 149.343 95.756 C 150.882 98.820,184.497 164.339,194.718 184.195 L 197.907 190.390 211.327 190.462 C 226.415 190.542,225.082 190.737,223.630 188.667 C 223.321 188.227,223.098 187.837,223.134 187.800 C 223.170 187.763,223.191 187.703,223.180 187.667 C 223.168 187.630,223.116 187.372,223.064 187.093 C 223.012 186.815,222.831 186.501,222.662 186.397 C 222.493 186.292,222.361 186.160,222.370 186.104 C 222.427 185.715,222.021 184.800,221.791 184.800 C 221.637 184.800,221.587 184.724,221.679 184.632 C 221.771 184.540,221.371 183.541,220.790 182.412 C 220.209 181.283,219.733 180.219,219.733 180.046 C 219.733 179.874,219.613 179.733,219.467 179.733 C 219.320 179.733,219.230 179.629,219.267 179.502 C 219.349 179.218,216.478 173.235,216.200 173.111 C 216.090 173.062,216.000 172.841,216.000 172.620 C 216.000 172.399,215.340 170.942,214.533 169.384 C 213.727 167.825,213.067 166.473,213.067 166.380 C 213.067 166.287,211.822 163.643,210.300 160.505 C 208.779 157.367,206.122 151.860,204.397 148.267 C 194.700 128.068,185.133 108.179,182.160 102.035 C 180.679 98.973,179.467 96.440,179.467 96.404 C 179.467 96.368,178.074 93.473,176.372 89.970 C 174.669 86.466,172.941 82.880,172.531 82.000 C 172.120 81.120,170.680 78.120,169.330 75.333 C 167.980 72.547,166.480 69.427,165.997 68.400 C 161.992 59.898,157.822 51.539,159.278 54.933 M146.667 90.667 C 147.111 91.547,147.534 92.267,147.608 92.267 C 147.681 92.267,147.378 91.547,146.933 90.667 C 146.489 89.787,146.066 89.067,145.992 89.067 C 145.919 89.067,146.222 89.787,146.667 90.667 M168.452 187.863 C 168.696 188.375,168.943 188.746,169.001 188.688 C 169.123 188.566,168.313 186.933,168.131 186.933 C 168.064 186.933,168.208 187.352,168.452 187.863 M170.133 190.854 C 170.134 191.103,170.792 192.267,170.932 192.267 C 171.030 192.267,171.116 192.417,171.122 192.600 C 171.127 192.783,172.106 194.733,173.297 196.933 L 175.461 200.933 175.464 250.200 L 175.467 299.467 193.067 299.467 L 210.667 299.467 210.667 257.431 L 210.667 215.396 206.551 207.365 C 204.287 202.947,201.475 197.473,200.302 195.200 L 198.168 191.067 184.151 190.933 C 176.441 190.860,170.133 190.824,170.133 190.854 M233.181 213.867 C 233.181 217.167,233.219 218.517,233.266 216.867 C 233.313 215.217,233.313 212.517,233.266 210.867 C 233.219 209.217,233.181 210.567,233.181 213.867 M233.188 231.733 C 233.188 237.527,233.223 239.897,233.266 237.000 C 233.309 234.103,233.309 229.363,233.266 226.467 C 233.223 223.570,233.188 225.940,233.188 231.733 M233.175 257.067 C 233.175 259.487,233.216 260.477,233.265 259.267 C 233.314 258.057,233.314 256.077,233.265 254.867 C 233.216 253.657,233.175 254.647,233.175 257.067 M221.993 315.201 C 215.830 321.360,210.850 326.400,210.928 326.400 C 211.006 326.400,216.108 321.360,222.267 315.200 C 228.425 309.040,233.405 304.000,233.332 304.001 C 233.259 304.001,228.157 309.041,221.993 315.201 " stroke="none" fill="#1da69f" fill-rule="evenodd"></path><path id="path1" d="M269.650 67.400 C 263.775 78.803,258.290 89.425,257.462 91.004 L 255.957 93.875 241.127 93.862 C 225.539 93.848,225.339 93.863,226.027 94.977 C 226.131 95.145,226.107 95.219,225.975 95.141 C 225.842 95.062,222.042 102.723,217.530 112.165 L 209.327 129.331 216.181 143.599 C 219.951 151.446,223.102 157.864,223.184 157.860 C 223.266 157.857,225.345 153.927,227.804 149.127 C 230.264 144.327,233.786 137.490,235.631 133.933 L 238.986 127.467 253.643 127.467 L 268.300 127.467 267.122 129.667 C 264.546 134.478,261.804 139.852,262.053 139.600 C 262.248 139.403,297.962 72.701,307.957 53.867 C 308.619 52.620,309.739 50.532,310.447 49.227 C 311.154 47.921,311.733 46.811,311.733 46.760 C 311.733 46.709,304.668 46.667,296.033 46.667 L 280.333 46.667 269.650 67.400 M260.055 143.000 C 257.957 146.961,257.486 147.921,257.799 147.600 C 258.150 147.239,261.936 140.000,261.773 140.000 C 261.702 140.000,260.929 141.350,260.055 143.000 M256.533 149.600 C 256.089 150.480,255.786 151.200,255.859 151.200 C 255.932 151.200,256.356 150.480,256.800 149.600 C 257.244 148.720,257.548 148.000,257.474 148.000 C 257.401 148.000,256.978 148.720,256.533 149.600 M254.267 153.867 C 253.895 154.600,253.651 155.200,253.724 155.200 C 253.798 155.200,254.162 154.600,254.533 153.867 C 254.905 153.133,255.149 152.533,255.076 152.533 C 255.002 152.533,254.638 153.133,254.267 153.867 M252.133 157.867 C 251.762 158.600,251.518 159.200,251.591 159.200 C 251.664 159.200,252.028 158.600,252.400 157.867 C 252.772 157.133,253.016 156.533,252.942 156.533 C 252.869 156.533,252.505 157.133,252.133 157.867 M224.556 160.933 C 224.556 161.080,224.786 161.620,225.067 162.133 C 225.348 162.647,225.578 162.947,225.578 162.800 C 225.578 162.653,225.348 162.113,225.067 161.600 C 224.786 161.087,224.556 160.787,224.556 160.933 M249.867 162.133 C 249.567 162.720,249.382 163.200,249.456 163.200 C 249.529 163.200,249.834 162.720,250.133 162.133 C 250.433 161.547,250.618 161.067,250.544 161.067 C 250.471 161.067,250.166 161.547,249.867 162.133 M247.867 165.867 C 247.639 166.307,247.513 166.667,247.586 166.667 C 247.660 166.667,247.906 166.307,248.133 165.867 C 248.361 165.427,248.487 165.067,248.414 165.067 C 248.340 165.067,248.094 165.427,247.867 165.867 " stroke="none" fill="#363634" fill-rule="evenodd"></path><path id="path2" d="M239.968 65.400 C 239.951 65.583,239.951 65.823,239.968 65.933 C 239.986 66.043,239.873 66.133,239.718 66.133 C 239.562 66.133,239.509 66.253,239.600 66.400 C 239.691 66.547,239.654 66.667,239.519 66.667 C 239.384 66.667,238.936 67.417,238.525 68.333 C 238.114 69.250,236.080 73.540,234.006 77.867 C 231.931 82.193,229.941 86.390,229.584 87.193 C 229.226 87.996,228.373 89.773,227.688 91.143 C 226.874 92.769,226.551 93.674,226.755 93.752 C 226.926 93.818,233.590 93.841,241.563 93.803 L 256.059 93.733 263.226 79.867 L 270.393 66.000 255.206 65.931 C 241.871 65.871,240.037 65.814,240.171 65.464 C 240.255 65.246,240.251 65.067,240.162 65.067 C 240.073 65.067,239.986 65.217,239.968 65.400 M235.911 133.400 C 234.216 136.663,230.672 143.521,228.036 148.640 L 223.243 157.946 224.348 160.173 L 225.452 162.400 237.606 162.400 L 249.759 162.400 253.191 155.933 C 255.078 152.377,258.503 145.927,260.802 141.600 C 263.101 137.273,265.725 132.323,266.632 130.600 L 268.283 127.467 253.638 127.467 L 238.993 127.467 235.911 133.400 M225.619 162.800 C 225.619 162.947,225.790 163.367,226.000 163.733 C 226.210 164.100,226.381 164.280,226.381 164.133 C 226.381 163.987,226.210 163.567,226.000 163.200 C 225.790 162.833,225.619 162.653,225.619 162.800 M228.286 168.400 C 228.286 168.547,228.457 168.967,228.667 169.333 C 228.876 169.700,229.048 169.880,229.048 169.733 C 229.048 169.587,228.876 169.167,228.667 168.800 C 228.457 168.433,228.286 168.253,228.286 168.400 " stroke="none" fill="#545454" fill-rule="evenodd"></path><path id="path3" d="M89.280 40.333 C 89.857 41.397,91.560 44.547,93.063 47.333 C 94.566 50.120,96.607 53.900,97.598 55.733 C 98.590 57.567,100.394 60.927,101.607 63.200 C 102.820 65.473,105.309 70.093,107.138 73.467 C 108.966 76.840,110.945 80.500,111.535 81.600 C 112.126 82.700,113.299 84.860,114.142 86.400 C 114.986 87.940,115.941 89.710,116.265 90.333 L 116.854 91.467 131.902 91.467 L 146.951 91.467 141.675 81.128 C 138.774 75.442,132.680 63.505,128.133 54.601 L 119.867 38.411 104.048 38.406 L 88.229 38.400 89.280 40.333 M210.933 302.599 L 210.933 325.998 222.000 314.933 L 233.067 303.869 233.067 291.535 L 233.067 279.200 222.000 279.200 L 210.933 279.200 210.933 302.599 " stroke="none" fill="#4fcfc9" fill-rule="evenodd"></path><path id="path4" d="M247.875 48.867 C 247.306 50.077,246.192 52.447,245.400 54.133 C 244.608 55.820,243.561 58.040,243.073 59.067 C 241.684 61.989,240.800 63.953,240.800 64.117 C 240.800 64.199,247.630 64.267,255.979 64.267 L 271.158 64.267 274.012 58.733 C 275.582 55.690,277.641 51.730,278.587 49.933 L 280.307 46.667 264.608 46.667 L 248.910 46.667 247.875 48.867 M227.101 165.533 C 227.343 166.083,227.550 166.735,227.561 166.980 C 227.572 167.226,227.657 167.380,227.750 167.323 C 228.020 167.156,231.214 174.159,231.022 174.496 C 230.926 174.663,230.949 174.708,231.072 174.597 C 231.363 174.332,234.448 180.766,234.221 181.164 C 234.126 181.330,234.146 181.378,234.266 181.269 C 234.386 181.161,235.058 182.271,235.760 183.736 C 236.820 185.947,237.553 187.135,237.267 186.177 C 237.166 185.841,238.997 182.141,239.201 182.267 C 239.298 182.327,239.378 182.220,239.378 182.028 C 239.378 181.394,245.173 170.701,245.430 170.860 C 245.569 170.946,245.598 170.880,245.496 170.714 C 245.259 170.331,247.300 166.596,247.598 166.866 C 247.719 166.977,247.735 166.920,247.632 166.741 C 247.529 166.562,247.630 166.058,247.856 165.621 C 248.082 165.184,248.267 164.761,248.267 164.680 C 248.267 164.599,243.405 164.533,237.463 164.533 L 226.660 164.533 227.101 165.533 " stroke="none" fill="#5f5f5f" fill-rule="evenodd"></path><path id="path5" d="M122.620 43.533 C 124.081 46.357,129.623 57.127,134.937 67.467 C 140.251 77.807,145.452 87.897,146.494 89.890 L 148.388 93.514 163.043 93.686 C 171.103 93.781,177.729 93.827,177.767 93.788 C 177.806 93.749,176.584 91.101,175.051 87.903 C 173.518 84.705,172.343 81.960,172.440 81.803 C 172.536 81.646,172.507 81.584,172.375 81.664 C 172.242 81.745,167.454 72.043,161.736 60.105 L 151.338 38.400 135.652 38.400 L 119.965 38.400 122.620 43.533 M175.467 330.533 C 175.467 347.620,175.556 361.600,175.666 361.600 C 175.776 361.600,183.726 353.740,193.333 344.134 L 210.800 326.668 210.729 313.068 L 210.657 299.467 193.062 299.467 L 175.467 299.467 175.467 330.533 " stroke="none" fill="#048d84" fill-rule="evenodd"></path><path id="path6" d="M116.924 91.626 C 117.145 91.788,117.247 91.998,117.151 92.093 C 117.056 92.189,117.125 92.267,117.305 92.267 C 117.484 92.267,117.563 92.377,117.480 92.512 C 117.397 92.647,117.480 92.920,117.664 93.118 C 117.849 93.317,118.023 93.597,118.052 93.740 C 118.080 93.883,119.430 96.455,121.052 99.455 C 122.673 102.455,124.000 104.937,124.000 104.969 C 124.000 105.002,124.981 106.807,126.181 108.981 C 127.380 111.155,128.868 113.893,129.486 115.067 C 132.225 120.263,135.210 125.631,135.493 125.867 C 135.807 126.128,136.307 127.248,136.171 127.385 C 136.095 127.461,136.265 127.773,136.549 128.079 C 136.834 128.384,137.067 128.791,137.067 128.984 C 137.067 129.268,139.811 129.333,151.734 129.333 L 166.401 129.333 161.600 119.933 C 158.959 114.763,154.608 106.245,151.932 101.004 L 147.067 91.475 131.795 91.404 C 120.648 91.353,116.632 91.412,116.924 91.626 M210.933 262.400 L 210.933 279.200 222.000 279.200 L 233.067 279.200 233.067 262.400 L 233.067 245.600 222.000 245.600 L 210.933 245.600 210.933 262.400 M221.865 315.133 L 210.800 326.267 221.933 315.201 C 232.281 304.916,233.187 304.000,232.999 304.000 C 232.961 304.000,227.951 309.010,221.865 315.133 " stroke="none" fill="#42c4be" fill-rule="evenodd"></path><path id="path7" d="M240.532 64.400 C 240.531 64.547,240.373 64.967,240.182 65.333 L 239.834 66.000 255.050 65.928 L 270.267 65.857 270.718 65.066 L 271.170 64.275 255.852 64.204 C 245.771 64.158,240.533 64.225,240.532 64.400 M226.086 163.464 L 226.533 164.528 237.528 164.531 L 248.522 164.533 249.067 163.467 L 249.611 162.400 237.625 162.400 L 225.640 162.400 226.086 163.464 " stroke="none" fill="#5c5c54" fill-rule="evenodd"></path><path id="path8" d="M135.613 126.691 C 135.847 127.145,136.095 127.461,136.163 127.393 C 136.345 127.211,135.687 125.867,135.417 125.867 C 135.290 125.867,135.378 126.238,135.613 126.691 M138.096 131.267 C 140.626 135.957,146.853 147.557,149.727 152.933 C 151.452 156.160,153.551 160.060,154.393 161.600 C 155.235 163.140,156.558 165.600,157.334 167.067 C 158.109 168.533,158.827 169.853,158.931 170.000 C 159.101 170.241,160.044 171.999,162.937 177.467 C 163.481 178.493,164.176 179.776,164.483 180.318 C 165.094 181.398,167.695 186.131,168.889 188.337 C 169.304 189.105,169.630 189.766,169.612 189.806 C 169.188 190.754,169.729 190.797,184.132 190.933 L 198.168 191.067 200.302 195.200 C 201.475 197.473,204.287 202.947,206.551 207.365 L 210.667 215.396 210.732 270.831 C 210.793 321.448,210.804 322.761,210.867 285.933 L 210.935 245.600 221.993 245.600 L 233.052 245.600 233.126 249.267 C 233.167 251.283,233.158 242.814,233.106 230.446 L 233.012 207.959 231.206 204.180 C 226.521 194.381,225.528 192.387,225.242 192.204 C 225.072 192.096,225.026 192.006,225.140 192.004 C 225.254 192.002,225.161 191.640,224.933 191.200 L 224.520 190.400 211.217 190.400 L 197.915 190.400 192.870 180.600 C 190.095 175.210,183.036 161.470,177.182 150.067 L 166.538 129.333 151.796 129.333 L 137.053 129.333 138.096 131.267 M233.194 282.667 C 233.194 294.473,233.227 299.303,233.267 293.400 C 233.307 287.497,233.307 277.837,233.267 271.933 C 233.227 266.030,233.194 270.860,233.194 282.667 " stroke="none" fill="#3cbcbc" fill-rule="evenodd"></path></g></svg>