<svg xmlns="http://www.w3.org/2000/svg" xmlns:xlink="http://www.w3.org/1999/xlink" version="1.1" width="940" height="788" viewBox="0 0 940 788" xml:space="preserve">
<desc>Created with Fabric.js 3.5.0</desc>
<defs>
</defs>
<rect x="0" y="0" width="100%" height="100%" fill="transparent"></rect>
<g transform="matrix(1 0 0 1 470 394)" id="532117"  >
<g style="" vector-effect="non-scaling-stroke"   >
		<g transform="matrix(1 0 0 1 0 0)" id="logo"  >
<path style="stroke: rgb(0,0,0); stroke-width: 1; stroke-dasharray: none; stroke-linecap: butt; stroke-dashoffset: 0; stroke-linejoin: miter; stroke-miterlimit: 4; is-custom-font: none; font-file-url: none; fill: rgb(255,255,255); fill-opacity: 0; fill-rule: nonzero; opacity: 1;"  transform=" translate(-50, -50)" d="M 50 5 L 11 27 L 11 72 L 50 95 L 89 73 L 89 28 z" stroke-linecap="round" />
</g>
		<g transform="matrix(1 0 0 1 -10.2227 14.9876)" style="" id="logo"  >
		<text xml:space="preserve" font-family="Times New Roman" font-size="16" font-style="normal" font-weight="normal" style="stroke: none; stroke-width: 1; stroke-dasharray: none; stroke-linecap: butt; stroke-dashoffset: 0; stroke-linejoin: miter; stroke-miterlimit: 4; is-custom-font: none; font-file-url: none; fill: rgb(255,255,255); fill-rule: nonzero; opacity: 1; white-space: pre;" ><tspan x="-5.7773" y="5.0262" >Y</tspan></text>
</g>
</g>
</g>
<g transform="matrix(0.1317 0 0 0.1317 470 394)" id="455682"  >
<g style="" vector-effect="non-scaling-stroke"   >
		<g transform="matrix(1 0 0 1 -10.3431 -17.5519)" id="path0"  >
<path style="stroke: none; stroke-width: 1; stroke-dasharray: none; stroke-linecap: butt; stroke-dashoffset: 0; stroke-linejoin: miter; stroke-miterlimit: 4; is-custom-font: none; font-file-url: none; fill: rgb(29,166,159); fill-rule: evenodd; opacity: 1;"  transform=" translate(-189.657, -182.448)" d="M 151.489 38.533 C 151.489 38.68 151.719 39.22 152 39.733 C 152.281 40.247 152.511 40.547 152.511 40.4 C 152.511 40.253 152.281 39.713 152 39.2 C 151.719 38.687 151.489 38.387 151.489 38.533 M 152.828 41.467 C 152.828 41.613 153.535 43.113 154.4 44.8 C 155.265 46.487 155.972 47.747 155.972 47.6 C 155.972 47.453 155.265 45.953 154.4 44.267 C 153.535 42.58 152.828 41.32 152.828 41.467 M 156.027 48.133 C 156.027 48.28 156.675 49.66 157.467 51.2 C 158.258 52.74 158.906 53.88 158.906 53.733 C 158.906 53.587 158.258 52.207 157.467 50.667 C 156.675 49.127 156.027 47.987 156.027 48.133 M 159.278 54.933 C 159.498 55.447 160.576 57.727 161.674 60 C 165.861 68.668 176.62 91.128 177.225 92.464 L 177.857 93.861 L 163.037 93.686 L 148.217 93.512 L 149.343 95.756 C 150.882 98.82 184.497 164.339 194.718 184.195 L 197.907 190.39 L 211.327 190.462 C 226.415 190.542 225.082 190.737 223.63 188.667 C 223.321 188.227 223.098 187.837 223.134 187.8 C 223.17 187.763 223.191 187.703 223.18 187.667 C 223.168 187.63 223.116 187.372 223.064 187.093 C 223.012 186.815 222.831 186.501 222.662 186.397 C 222.493 186.292 222.361 186.16 222.37 186.104 C 222.427 185.715 222.021 184.8 221.791 184.8 C 221.637 184.8 221.587 184.724 221.679 184.632 C 221.771 184.54 221.371 183.541 220.79 182.412 C 220.209 181.283 219.733 180.219 219.733 180.046 C 219.733 179.874 219.613 179.733 219.467 179.733 C 219.32 179.733 219.23 179.629 219.267 179.502 C 219.349 179.218 216.478 173.235 216.2 173.111 C 216.09 173.062 216 172.841 216 172.62 C 216 172.399 215.34 170.942 214.533 169.384 C 213.727 167.825 213.067 166.473 213.067 166.38 C 213.067 166.287 211.822 163.643 210.3 160.505 C 208.779 157.367 206.122 151.86 204.397 148.267 C 194.7 128.068 185.133 108.179 182.16 102.035 C 180.679 98.973 179.467 96.44 179.467 96.404 C 179.467 96.368 178.074 93.473 176.372 89.97 C 174.669 86.466 172.941 82.88 172.531 82 C 172.12 81.12 170.68 78.12 169.33 75.333 C 167.98 72.547 166.48 69.427 165.997 68.4 C 161.992 59.898 157.822 51.539 159.278 54.933 M 146.667 90.667 C 147.111 91.547 147.534 92.267 147.608 92.267 C 147.681 92.267 147.378 91.547 146.933 90.667 C 146.489 89.787 146.066 89.067 145.992 89.067 C 145.919 89.067 146.222 89.787 146.667 90.667 M 168.452 187.863 C 168.696 188.375 168.943 188.746 169.001 188.688 C 169.123 188.566 168.313 186.933 168.131 186.933 C 168.064 186.933 168.208 187.352 168.452 187.863 M 170.133 190.854 C 170.134 191.103 170.792 192.267 170.932 192.267 C 171.03 192.267 171.116 192.417 171.122 192.6 C 171.127 192.783 172.106 194.733 173.297 196.933 L 175.461 200.933 L 175.464 250.2 L 175.467 299.467 L 193.067 299.467 L 210.667 299.467 L 210.667 257.431 L 210.667 215.396 L 206.551 207.365 C 204.287 202.947 201.475 197.473 200.302 195.2 L 198.168 191.067 L 184.151 190.933 C 176.441 190.86 170.133 190.824 170.133 190.854 M 233.181 213.867 C 233.181 217.167 233.219 218.517 233.266 216.867 C 233.313 215.217 233.313 212.517 233.266 210.867 C 233.219 209.217 233.181 210.567 233.181 213.867 M 233.188 231.733 C 233.188 237.527 233.223 239.897 233.266 237 C 233.309 234.103 233.309 229.363 233.266 226.467 C 233.223 223.57 233.188 225.94 233.188 231.733 M 233.175 257.067 C 233.175 259.487 233.216 260.477 233.265 259.267 C 233.314 258.057 233.314 256.077 233.265 254.867 C 233.216 253.657 233.175 254.647 233.175 257.067 M 221.993 315.201 C 215.83 321.36 210.85 326.4 210.928 326.4 C 211.006 326.4 216.108 321.36 222.267 315.2 C 228.425 309.04 233.405 304 233.332 304.001 C 233.259 304.001 228.157 309.041 221.993 315.201" stroke-linecap="round" />
</g>
		<g transform="matrix(1 0 0 1 60.53 -93.333)" id="path1"  >
<path style="stroke: none; stroke-width: 1; stroke-dasharray: none; stroke-linecap: butt; stroke-dashoffset: 0; stroke-linejoin: miter; stroke-miterlimit: 4; is-custom-font: none; font-file-url: none; fill: rgb(54,54,52); fill-rule: evenodd; opacity: 1;"  transform=" translate(-260.53, -106.667)" d="M 269.65 67.4 C 263.775 78.803 258.29 89.425 257.462 91.004 L 255.957 93.875 L 241.127 93.862 C 225.539 93.848 225.339 93.863 226.027 94.977 C 226.131 95.145 226.107 95.219 225.975 95.141 C 225.842 95.062 222.042 102.723 217.53 112.165 L 209.327 129.331 L 216.181 143.599 C 219.951 151.446 223.102 157.864 223.184 157.86 C 223.266 157.857 225.345 153.927 227.804 149.127 C 230.264 144.327 233.786 137.49 235.631 133.933 L 238.986 127.467 L 253.643 127.467 L 268.3 127.467 L 267.122 129.667 C 264.546 134.478 261.804 139.852 262.053 139.6 C 262.248 139.403 297.962 72.701 307.957 53.867 C 308.619 52.62 309.739 50.532 310.447 49.227 C 311.154 47.921 311.733 46.811 311.733 46.76 C 311.733 46.709 304.668 46.667 296.033 46.667 L 280.333 46.667 L 269.65 67.4 M 260.055 143 C 257.957 146.961 257.486 147.921 257.799 147.6 C 258.15 147.239 261.936 140 261.773 140 C 261.702 140 260.929 141.35 260.055 143 M 256.533 149.6 C 256.089 150.48 255.786 151.2 255.859 151.2 C 255.932 151.2 256.356 150.48 256.8 149.6 C 257.244 148.72 257.548 148 257.474 148 C 257.401 148 256.978 148.72 256.533 149.6 M 254.267 153.867 C 253.895 154.6 253.651 155.2 253.724 155.2 C 253.798 155.2 254.162 154.6 254.533 153.867 C 254.905 153.133 255.149 152.533 255.076 152.533 C 255.002 152.533 254.638 153.133 254.267 153.867 M 252.133 157.867 C 251.762 158.6 251.518 159.2 251.591 159.2 C 251.664 159.2 252.028 158.6 252.4 157.867 C 252.772 157.133 253.016 156.533 252.942 156.533 C 252.869 156.533 252.505 157.133 252.133 157.867 M 224.556 160.933 C 224.556 161.08 224.786 161.62 225.067 162.133 C 225.348 162.647 225.578 162.947 225.578 162.8 C 225.578 162.653 225.348 162.113 225.067 161.6 C 224.786 161.087 224.556 160.787 224.556 160.933 M 249.867 162.133 C 249.567 162.72 249.382 163.2 249.456 163.2 C 249.529 163.2 249.834 162.72 250.133 162.133 C 250.433 161.547 250.618 161.067 250.544 161.067 C 250.471 161.067 250.166 161.547 249.867 162.133 M 247.867 165.867 C 247.639 166.307 247.513 166.667 247.586 166.667 C 247.66 166.667 247.906 166.307 248.133 165.867 C 248.361 165.427 248.487 165.067 248.414 165.067 C 248.34 165.067 248.094 165.427 247.867 165.867" stroke-linecap="round" />
</g>
		<g transform="matrix(1 0 0 1 46.818 -82.5744)" id="path2"  >
<path style="stroke: none; stroke-width: 1; stroke-dasharray: none; stroke-linecap: butt; stroke-dashoffset: 0; stroke-linejoin: miter; stroke-miterlimit: 4; is-custom-font: none; font-file-url: none; fill: rgb(84,84,84); fill-rule: evenodd; opacity: 1;"  transform=" translate(-246.818, -117.4256)" d="M 239.968 65.4 C 239.951 65.583 239.951 65.823 239.968 65.933 C 239.986 66.043 239.873 66.133 239.718 66.133 C 239.562 66.133 239.509 66.253 239.6 66.4 C 239.691 66.547 239.654 66.667 239.519 66.667 C 239.384 66.667 238.936 67.417 238.525 68.333 C 238.114 69.25 236.08 73.54 234.006 77.867 C 231.931 82.193 229.941 86.39 229.584 87.193 C 229.226 87.996 228.373 89.773 227.688 91.143 C 226.874 92.769 226.551 93.674 226.755 93.752 C 226.926 93.818 233.59 93.841 241.563 93.803 L 256.059 93.733 L 263.226 79.867 L 270.393 66 L 255.206 65.931 C 241.871 65.871 240.037 65.814 240.171 65.464 C 240.255 65.246 240.251 65.067 240.162 65.067 C 240.073 65.067 239.986 65.217 239.968 65.4 M 235.911 133.4 C 234.216 136.663 230.672 143.521 228.036 148.64 L 223.243 157.946 L 224.348 160.173 L 225.452 162.4 L 237.606 162.4 L 249.759 162.4 L 253.191 155.933 C 255.078 152.377 258.503 145.927 260.802 141.6 C 263.101 137.273 265.725 132.323 266.632 130.6 L 268.283 127.467 L 253.638 127.467 L 238.993 127.467 L 235.911 133.4 M 225.619 162.8 C 225.619 162.947 225.79 163.367 226 163.733 C 226.21 164.1 226.381 164.28 226.381 164.133 C 226.381 163.987 226.21 163.567 226 163.2 C 225.79 162.833 225.619 162.653 225.619 162.8 M 228.286 168.4 C 228.286 168.547 228.457 168.967 228.667 169.333 C 228.876 169.7 229.048 169.88 229.048 169.733 C 229.048 169.587 228.876 169.167 228.667 168.8 C 228.457 168.433 228.286 168.253 228.286 168.4" stroke-linecap="round" />
</g>
		<g transform="matrix(1 0 0 1 -39.352 -17.801)" id="path3"  >
<path style="stroke: none; stroke-width: 1; stroke-dasharray: none; stroke-linecap: butt; stroke-dashoffset: 0; stroke-linejoin: miter; stroke-miterlimit: 4; is-custom-font: none; font-file-url: none; fill: rgb(79,207,201); fill-rule: evenodd; opacity: 1;"  transform=" translate(-160.648, -182.199)" d="M 89.28 40.333 C 89.857 41.397 91.56 44.547 93.063 47.333 C 94.566 50.12 96.607 53.9 97.598 55.733 C 98.59 57.567 100.394 60.927 101.607 63.2 C 102.82 65.473 105.309 70.093 107.138 73.467 C 108.966 76.84 110.945 80.5 111.535 81.6 C 112.126 82.7 113.299 84.86 114.142 86.4 C 114.986 87.94 115.941 89.71 116.265 90.333 L 116.854 91.467 L 131.902 91.467 L 146.951 91.467 L 141.675 81.128 C 138.774 75.442 132.68 63.505 128.133 54.601 L 119.867 38.411 L 104.048 38.406 L 88.229 38.4 L 89.28 40.333 M 210.933 302.599 L 210.933 325.998 L 222 314.933 L 233.067 303.869 L 233.067 291.535 L 233.067 279.2 L 222 279.2 L 210.933 279.2 L 210.933 302.599" stroke-linecap="round" />
</g>
		<g transform="matrix(1 0 0 1 53.4835 -83.4108)" id="path4"  >
<path style="stroke: none; stroke-width: 1; stroke-dasharray: none; stroke-linecap: butt; stroke-dashoffset: 0; stroke-linejoin: miter; stroke-miterlimit: 4; is-custom-font: none; font-file-url: none; fill: rgb(95,95,95); fill-rule: evenodd; opacity: 1;"  transform=" translate(-253.4835, -116.5892)" d="M 247.875 48.867 C 247.306 50.077 246.192 52.447 245.4 54.133 C 244.608 55.82 243.561 58.04 243.073 59.067 C 241.684 61.989 240.8 63.953 240.8 64.117 C 240.8 64.199 247.63 64.267 255.979 64.267 L 271.158 64.267 L 274.012 58.733 C 275.582 55.69 277.641 51.73 278.587 49.933 L 280.307 46.667 L 264.608 46.667 L 248.91 46.667 L 247.875 48.867 M 227.101 165.533 C 227.343 166.083 227.55 166.735 227.561 166.98 C 227.572 167.226 227.657 167.38 227.75 167.323 C 228.02 167.156 231.214 174.159 231.022 174.496 C 230.926 174.663 230.949 174.708 231.072 174.597 C 231.363 174.332 234.448 180.766 234.221 181.164 C 234.126 181.33 234.146 181.378 234.266 181.269 C 234.386 181.161 235.058 182.271 235.76 183.736 C 236.82 185.947 237.553 187.135 237.267 186.177 C 237.166 185.841 238.997 182.141 239.201 182.267 C 239.298 182.327 239.378 182.22 239.378 182.028 C 239.378 181.394 245.173 170.701 245.43 170.86 C 245.569 170.946 245.598 170.88 245.496 170.714 C 245.259 170.331 247.3 166.596 247.598 166.866 C 247.719 166.977 247.735 166.92 247.632 166.741 C 247.529 166.562 247.63 166.058 247.856 165.621 C 248.082 165.184 248.267 164.761 248.267 164.68 C 248.267 164.599 243.405 164.533 237.463 164.533 L 226.66 164.533 L 227.101 165.533" stroke-linecap="round" />
</g>
		<g transform="matrix(1 0 0 1 -34.6175 0)" id="path5"  >
<path style="stroke: none; stroke-width: 1; stroke-dasharray: none; stroke-linecap: butt; stroke-dashoffset: 0; stroke-linejoin: miter; stroke-miterlimit: 4; is-custom-font: none; font-file-url: none; fill: rgb(4,141,132); fill-rule: evenodd; opacity: 1;"  transform=" translate(-165.3825, -200)" d="M 122.62 43.533 C 124.081 46.357 129.623 57.127 134.937 67.467 C 140.251 77.807 145.452 87.897 146.494 89.89 L 148.388 93.514 L 163.043 93.686 C 171.103 93.781 177.729 93.827 177.767 93.788 C 177.806 93.749 176.584 91.101 175.051 87.903 C 173.518 84.705 172.343 81.96 172.44 81.803 C 172.536 81.646 172.507 81.584 172.375 81.664 C 172.242 81.745 167.454 72.043 161.736 60.105 L 151.338 38.4 L 135.652 38.4 L 119.965 38.4 L 122.62 43.533 M 175.467 330.533 C 175.467 347.62 175.556 361.6 175.666 361.6 C 175.776 361.6 183.726 353.74 193.333 344.134 L 210.8 326.668 L 210.729 313.068 L 210.657 299.467 L 193.062 299.467 L 175.467 299.467 L 175.467 330.533" stroke-linecap="round" />
</g>
		<g transform="matrix(1 0 0 1 -25.0118 8.8269)" id="path6"  >
<path style="stroke: none; stroke-width: 1; stroke-dasharray: none; stroke-linecap: butt; stroke-dashoffset: 0; stroke-linejoin: miter; stroke-miterlimit: 4; is-custom-font: none; font-file-url: none; fill: rgb(66,196,190); fill-rule: evenodd; opacity: 1;"  transform=" translate(-174.9881, -208.8269)" d="M 116.924 91.626 C 117.145 91.788 117.247 91.998 117.151 92.093 C 117.056 92.189 117.125 92.267 117.305 92.267 C 117.484 92.267 117.563 92.377 117.48 92.512 C 117.397 92.647 117.48 92.92 117.664 93.118 C 117.849 93.317 118.023 93.597 118.052 93.74 C 118.08 93.883 119.43 96.455 121.052 99.455 C 122.673 102.455 124 104.937 124 104.969 C 124 105.002 124.981 106.807 126.181 108.981 C 127.38 111.155 128.868 113.893 129.486 115.067 C 132.225 120.263 135.21 125.631 135.493 125.867 C 135.807 126.128 136.307 127.248 136.171 127.385 C 136.095 127.461 136.265 127.773 136.549 128.079 C 136.834 128.384 137.067 128.791 137.067 128.984 C 137.067 129.268 139.811 129.333 151.734 129.333 L 166.401 129.333 L 161.6 119.933 C 158.959 114.763 154.608 106.245 151.932 101.004 L 147.067 91.475 L 131.795 91.404 C 120.648 91.353 116.632 91.412 116.924 91.626 M 210.933 262.4 L 210.933 279.2 L 222 279.2 L 233.067 279.2 L 233.067 262.4 L 233.067 245.6 L 222 245.6 L 210.933 245.6 L 210.933 262.4 M 221.865 315.133 L 210.8 326.267 L 221.933 315.201 C 232.281 304.916 233.187 304 232.999 304 C 232.961 304 227.951 309.01 221.865 315.133" stroke-linecap="round" />
</g>
		<g transform="matrix(1 0 0 1 48.405 -85.6386)" id="path7"  >
<path style="stroke: none; stroke-width: 1; stroke-dasharray: none; stroke-linecap: butt; stroke-dashoffset: 0; stroke-linejoin: miter; stroke-miterlimit: 4; is-custom-font: none; font-file-url: none; fill: rgb(92,92,84); fill-rule: evenodd; opacity: 1;"  transform=" translate(-248.405, -114.3615)" d="M 240.532 64.4 C 240.531 64.547 240.373 64.967 240.182 65.333 L 239.834 66 L 255.05 65.928 L 270.267 65.857 L 270.718 65.066 L 271.17 64.275 L 255.852 64.204 C 245.771 64.158 240.533 64.225 240.532 64.4 M 226.086 163.464 L 226.533 164.528 L 237.528 164.531 L 248.522 164.533 L 249.067 163.467 L 249.611 162.4 L 237.625 162.4 L 225.64 162.4 L 226.086 163.464" stroke-linecap="round" />
</g>
		<g transform="matrix(1 0 0 1 -15.6721 18.6655)" id="path8"  >
<path style="stroke: none; stroke-width: 1; stroke-dasharray: none; stroke-linecap: butt; stroke-dashoffset: 0; stroke-linejoin: miter; stroke-miterlimit: 4; is-custom-font: none; font-file-url: none; fill: rgb(60,188,188); fill-rule: evenodd; opacity: 1;"  transform=" translate(-184.3279, -218.6655)" d="M 135.613 126.691 C 135.847 127.145 136.095 127.461 136.163 127.393 C 136.345 127.211 135.687 125.867 135.417 125.867 C 135.29 125.867 135.378 126.238 135.613 126.691 M 138.096 131.267 C 140.626 135.957 146.853 147.557 149.727 152.933 C 151.452 156.16 153.551 160.06 154.393 161.6 C 155.235 163.14 156.558 165.6 157.334 167.067 C 158.109 168.533 158.827 169.853 158.931 170 C 159.101 170.241 160.044 171.999 162.937 177.467 C 163.481 178.493 164.176 179.776 164.483 180.318 C 165.094 181.398 167.695 186.131 168.889 188.337 C 169.304 189.105 169.63 189.766 169.612 189.806 C 169.188 190.754 169.729 190.797 184.132 190.933 L 198.168 191.067 L 200.302 195.2 C 201.475 197.473 204.287 202.947 206.551 207.365 L 210.667 215.396 L 210.732 270.831 C 210.793 321.448 210.804 322.761 210.867 285.933 L 210.935 245.6 L 221.993 245.6 L 233.052 245.6 L 233.126 249.267 C 233.167 251.283 233.158 242.814 233.106 230.446 L 233.012 207.959 L 231.206 204.18 C 226.521 194.381 225.528 192.387 225.242 192.204 C 225.072 192.096 225.026 192.006 225.14 192.004 C 225.254 192.002 225.161 191.64 224.933 191.2 L 224.52 190.4 L 211.217 190.4 L 197.915 190.4 L 192.87 180.6 C 190.095 175.21 183.036 161.47 177.182 150.067 L 166.538 129.333 L 151.796 129.333 L 137.053 129.333 L 138.096 131.267 M 233.194 282.667 C 233.194 294.473 233.227 299.303 233.267 293.4 C 233.307 287.497 233.307 277.837 233.267 271.933 C 233.227 266.03 233.194 270.86 233.194 282.667" stroke-linecap="round" />
</g>
</g>
</g>
</svg>