<svg width="224" height="324" viewBox="0 0 224 324" fill="none" xmlns="http://www.w3.org/2000/svg">
<path fill-rule="evenodd" clip-rule="evenodd" d="M63.4888 0.533033C63.4888 0.680033 63.7188 1.22003 63.9998 1.73303C64.2808 2.24703 64.5108 2.54703 64.5108 2.40003C64.5108 2.25303 64.2808 1.71303 63.9998 1.20003C63.7188 0.687032 63.4888 0.387033 63.4888 0.533033ZM64.8278 3.46703C64.8278 3.61303 65.5348 5.11303 66.3998 6.80003C67.2648 8.48703 67.9718 9.74703 67.9718 9.60003C67.9718 9.45303 67.2648 7.95303 66.3998 6.26703C65.5348 4.58003 64.8278 3.32003 64.8278 3.46703ZM68.0268 10.133C68.0268 10.28 68.6748 11.66 69.4668 13.2C70.2578 14.74 70.9058 15.88 70.9058 15.733C70.9058 15.587 70.2578 14.207 69.4668 12.667C68.6748 11.127 68.0268 9.98703 68.0268 10.133ZM71.2778 16.933C71.4978 17.447 72.5758 19.727 73.6738 22C77.8608 30.668 88.6198 53.128 89.2248 54.464L89.8568 55.861L75.0368 55.686L60.2168 55.512L61.3428 57.756C62.8818 60.82 96.4968 126.339 106.718 146.195L109.907 152.39L123.327 152.462C138.415 152.542 137.082 152.737 135.63 150.667C135.321 150.227 135.098 149.837 135.134 149.8C135.17 149.763 135.191 149.703 135.18 149.667C135.168 149.63 135.116 149.372 135.064 149.093C135.012 148.815 134.831 148.501 134.662 148.397C134.493 148.292 134.361 148.16 134.37 148.104C134.427 147.715 134.021 146.8 133.791 146.8C133.637 146.8 133.587 146.724 133.679 146.632C133.771 146.54 133.371 145.541 132.79 144.412C132.209 143.283 131.733 142.219 131.733 142.046C131.733 141.874 131.613 141.733 131.467 141.733C131.32 141.733 131.23 141.629 131.267 141.502C131.349 141.218 128.478 135.235 128.2 135.111C128.09 135.062 128 134.841 128 134.62C128 134.399 127.34 132.942 126.533 131.384C125.727 129.825 125.067 128.473 125.067 128.38C125.067 128.287 123.822 125.643 122.3 122.505C120.779 119.367 118.122 113.86 116.397 110.267C106.7 90.068 97.1328 70.179 94.1598 64.035C92.6788 60.973 91.4668 58.44 91.4668 58.404C91.4668 58.368 90.0738 55.473 88.3718 51.97C86.6688 48.466 84.9408 44.88 84.5308 44C84.1198 43.12 82.6798 40.12 81.3298 37.333C79.9798 34.547 78.4798 31.427 77.9968 30.4C73.9918 21.898 69.8218 13.539 71.2778 16.933ZM58.6668 52.667C59.1108 53.547 59.5338 54.267 59.6078 54.267C59.6808 54.267 59.3778 53.547 58.9328 52.667C58.4888 51.787 58.0658 51.067 57.9918 51.067C57.9188 51.067 58.2218 51.787 58.6668 52.667ZM80.4518 149.863C80.6958 150.375 80.9428 150.746 81.0008 150.688C81.1228 150.566 80.3128 148.933 80.1308 148.933C80.0638 148.933 80.2078 149.352 80.4518 149.863ZM82.1328 152.854C82.1338 153.103 82.7918 154.267 82.9318 154.267C83.0298 154.267 83.1158 154.417 83.1218 154.6C83.1268 154.783 84.1058 156.733 85.2968 158.933L87.4608 162.933L87.4638 212.2L87.4668 261.467H105.067H122.667V219.431V177.396L118.551 169.365C116.287 164.947 113.475 159.473 112.302 157.2L110.168 153.067L96.1508 152.933C88.4408 152.86 82.1328 152.824 82.1328 152.854ZM145.181 175.867C145.181 179.167 145.219 180.517 145.266 178.867C145.313 177.217 145.313 174.517 145.266 172.867C145.219 171.217 145.181 172.567 145.181 175.867ZM145.188 193.733C145.188 199.527 145.223 201.897 145.266 199C145.309 196.103 145.309 191.363 145.266 188.467C145.223 185.57 145.188 187.94 145.188 193.733ZM145.175 219.067C145.175 221.487 145.216 222.477 145.265 221.267C145.314 220.057 145.314 218.077 145.265 216.867C145.216 215.657 145.175 216.647 145.175 219.067ZM133.993 277.201C127.83 283.36 122.85 288.4 122.928 288.4C123.006 288.4 128.108 283.36 134.267 277.2C140.425 271.04 145.405 266 145.332 266.001C145.259 266.001 140.157 271.041 133.993 277.201Z" fill="#1DA69F"/>
<path fill-rule="evenodd" clip-rule="evenodd" d="M181.65 29.401C175.775 40.804 170.29 51.426 169.462 53.005L167.957 55.876L153.127 55.863C137.539 55.849 137.339 55.864 138.027 56.978C138.131 57.146 138.107 57.22 137.975 57.142C137.842 57.063 134.042 64.724 129.53 74.166L121.327 91.332L128.181 105.6C131.951 113.447 135.102 119.865 135.184 119.861C135.266 119.858 137.345 115.928 139.804 111.128C142.264 106.328 145.786 99.491 147.631 95.934L150.986 89.468H165.643H180.3L179.122 91.668C176.546 96.479 173.804 101.853 174.053 101.601C174.248 101.404 209.962 34.702 219.957 15.868C220.619 14.621 221.739 12.533 222.447 11.228C223.154 9.92197 223.733 8.81197 223.733 8.76097C223.733 8.70997 216.668 8.66797 208.033 8.66797H192.333L181.65 29.401ZM172.055 105.001C169.957 108.962 169.486 109.922 169.799 109.601C170.15 109.24 173.936 102.001 173.773 102.001C173.702 102.001 172.929 103.351 172.055 105.001ZM168.533 111.601C168.089 112.481 167.786 113.201 167.859 113.201C167.932 113.201 168.356 112.481 168.8 111.601C169.244 110.721 169.548 110.001 169.474 110.001C169.401 110.001 168.978 110.721 168.533 111.601ZM166.267 115.868C165.895 116.601 165.651 117.201 165.724 117.201C165.798 117.201 166.162 116.601 166.533 115.868C166.905 115.134 167.149 114.534 167.076 114.534C167.002 114.534 166.638 115.134 166.267 115.868ZM164.133 119.868C163.762 120.601 163.518 121.201 163.591 121.201C163.664 121.201 164.028 120.601 164.4 119.868C164.772 119.134 165.016 118.534 164.942 118.534C164.869 118.534 164.505 119.134 164.133 119.868ZM136.556 122.934C136.556 123.081 136.786 123.621 137.067 124.134C137.348 124.648 137.578 124.948 137.578 124.801C137.578 124.654 137.348 124.114 137.067 123.601C136.786 123.088 136.556 122.788 136.556 122.934ZM161.867 124.134C161.567 124.721 161.382 125.201 161.456 125.201C161.529 125.201 161.834 124.721 162.133 124.134C162.433 123.548 162.618 123.068 162.544 123.068C162.471 123.068 162.166 123.548 161.867 124.134ZM159.867 127.868C159.639 128.308 159.513 128.668 159.586 128.668C159.66 128.668 159.906 128.308 160.133 127.868C160.361 127.428 160.487 127.068 160.414 127.068C160.34 127.068 160.094 127.428 159.867 127.868Z" fill="#363634"/>
<path fill-rule="evenodd" clip-rule="evenodd" d="M151.968 27.4014C151.951 27.5844 151.951 27.8244 151.968 27.9344C151.986 28.0444 151.873 28.1344 151.718 28.1344C151.562 28.1344 151.509 28.2544 151.6 28.4014C151.691 28.5484 151.654 28.6684 151.519 28.6684C151.384 28.6684 150.936 29.4184 150.525 30.3344C150.114 31.2514 148.08 35.5414 146.006 39.8684C143.931 44.1944 141.941 48.3914 141.584 49.1944C141.226 49.9974 140.373 51.7744 139.688 53.1444C138.874 54.7704 138.551 55.6754 138.755 55.7534C138.926 55.8194 145.59 55.8424 153.563 55.8044L168.059 55.7344L175.226 41.8684L182.393 28.0014L167.206 27.9324C153.871 27.8724 152.037 27.8154 152.171 27.4654C152.255 27.2474 152.251 27.0684 152.162 27.0684C152.073 27.0684 151.986 27.2184 151.968 27.4014ZM147.911 95.4014C146.216 98.6644 142.672 105.522 140.036 110.641L135.243 119.947L136.348 122.174L137.452 124.401H149.606H161.759L165.191 117.934C167.078 114.378 170.503 107.928 172.802 103.601C175.101 99.2744 177.725 94.3244 178.632 92.6014L180.283 89.4684H165.638H150.993L147.911 95.4014ZM137.619 124.801C137.619 124.948 137.79 125.368 138 125.734C138.21 126.101 138.381 126.281 138.381 126.134C138.381 125.988 138.21 125.568 138 125.201C137.79 124.834 137.619 124.654 137.619 124.801ZM140.286 130.401C140.286 130.548 140.457 130.968 140.667 131.334C140.876 131.701 141.048 131.881 141.048 131.734C141.048 131.588 140.876 131.168 140.667 130.801C140.457 130.434 140.286 130.254 140.286 130.401Z" fill="#545454"/>
<path fill-rule="evenodd" clip-rule="evenodd" d="M1.28001 2.33339C1.85701 3.39739 3.56001 6.54739 5.06301 9.33339C6.56601 12.1204 8.60701 15.9004 9.59801 17.7334C10.59 19.5674 12.394 22.9274 13.607 25.2004C14.82 27.4734 17.309 32.0934 19.138 35.4674C20.966 38.8404 22.945 42.5004 23.535 43.6004C24.126 44.7004 25.299 46.8604 26.142 48.4004C26.986 49.9404 27.941 51.7104 28.265 52.3334L28.854 53.4674H43.902H58.951L53.675 43.1284C50.774 37.4424 44.68 25.5054 40.133 16.6014L31.867 0.411388L16.048 0.406387L0.229004 0.400391L1.28001 2.33339ZM122.933 264.599V287.998L134 276.933L145.067 265.869V253.535V241.2H134H122.933V264.599Z" fill="#4FCFC9"/>
<path fill-rule="evenodd" clip-rule="evenodd" d="M159.875 10.868C159.306 12.078 158.192 14.448 157.4 16.134C156.608 17.821 155.561 20.041 155.073 21.068C153.684 23.99 152.8 25.954 152.8 26.118C152.8 26.2 159.63 26.268 167.979 26.268H183.158L186.012 20.734C187.582 17.691 189.641 13.731 190.587 11.934L192.307 8.66797H176.608H160.91L159.875 10.868ZM139.101 127.534C139.343 128.084 139.55 128.736 139.561 128.981C139.572 129.227 139.657 129.381 139.75 129.324C140.02 129.157 143.214 136.16 143.022 136.497C142.926 136.664 142.949 136.709 143.072 136.598C143.363 136.333 146.448 142.767 146.221 143.165C146.126 143.331 146.146 143.379 146.266 143.27C146.386 143.162 147.058 144.272 147.76 145.737C148.82 147.948 149.553 149.136 149.267 148.178C149.166 147.842 150.997 144.142 151.201 144.268C151.298 144.328 151.378 144.221 151.378 144.029C151.378 143.395 157.173 132.702 157.43 132.861C157.569 132.947 157.598 132.881 157.496 132.715C157.259 132.332 159.3 128.597 159.598 128.867C159.719 128.978 159.735 128.921 159.632 128.742C159.529 128.563 159.63 128.059 159.856 127.622C160.082 127.185 160.267 126.762 160.267 126.681C160.267 126.6 155.405 126.534 149.463 126.534H138.66L139.101 127.534Z" fill="#5F5F5F"/>
<path fill-rule="evenodd" clip-rule="evenodd" d="M34.6199 5.53339C36.0809 8.35739 41.6228 19.1274 46.9368 29.4674C52.2508 39.8074 57.4519 49.8974 58.4939 51.8904L60.3878 55.5144L75.0428 55.6864C83.1028 55.7814 89.7288 55.8274 89.7668 55.7884C89.8058 55.7494 88.5838 53.1014 87.0508 49.9034C85.5178 46.7054 84.3428 43.9604 84.4398 43.8034C84.5358 43.6464 84.5068 43.5844 84.3748 43.6644C84.2418 43.7454 79.4538 34.0434 73.7358 22.1054L63.3378 0.400391H47.6518H31.9648L34.6199 5.53339ZM87.4668 292.533C87.4668 309.62 87.5558 323.6 87.6658 323.6C87.7758 323.6 95.7258 315.74 105.333 306.134L122.8 288.668L122.729 275.068L122.657 261.467H105.062H87.4668V292.533Z" fill="#048D84"/>
<path fill-rule="evenodd" clip-rule="evenodd" d="M28.9239 53.6259C29.1449 53.7879 29.2469 53.9979 29.1509 54.0929C29.0559 54.1889 29.1249 54.2669 29.3049 54.2669C29.4839 54.2669 29.5629 54.3769 29.4799 54.5119C29.3969 54.6469 29.4799 54.9199 29.6639 55.1179C29.8489 55.3169 30.0229 55.5969 30.0519 55.7399C30.0799 55.8829 31.4299 58.4549 33.0519 61.4549C34.6729 64.4549 35.9999 66.9369 35.9999 66.9689C35.9999 67.0019 36.9809 68.8069 38.1809 70.9809C39.3799 73.1549 40.8679 75.8929 41.4859 77.0669C44.2249 82.2629 47.2099 87.6309 47.4929 87.8669C47.8069 88.1279 48.3069 89.2479 48.1709 89.3849C48.0949 89.4609 48.2649 89.7729 48.5489 90.0789C48.8339 90.3839 49.0669 90.7909 49.0669 90.9839C49.0669 91.2679 51.8109 91.3329 63.7339 91.3329H78.4009L73.5999 81.9329C70.9589 76.7629 66.6079 68.2449 63.9319 63.0039L59.0669 53.4749L43.7949 53.4039C32.6479 53.3529 28.6319 53.4119 28.9239 53.6259ZM122.933 224.4V241.2H134H145.067V224.4V207.6H134H122.933V224.4ZM133.865 277.133L122.8 288.267L133.933 277.201C144.281 266.916 145.187 266 144.999 266C144.961 266 139.951 271.01 133.865 277.133Z" fill="#42C4BE"/>
<path fill-rule="evenodd" clip-rule="evenodd" d="M152.532 26.3995C152.531 26.5465 152.373 26.9665 152.182 27.3325L151.834 27.9995L167.05 27.9275L182.267 27.8565L182.718 27.0655L183.17 26.2745L167.852 26.2035C157.771 26.1575 152.533 26.2245 152.532 26.3995ZM138.086 125.464L138.533 126.528L149.528 126.531L160.522 126.533L161.067 125.467L161.611 124.4H149.625H137.64L138.086 125.464Z" fill="#5C5C54"/>
<path fill-rule="evenodd" clip-rule="evenodd" d="M47.613 88.6912C47.847 89.1452 48.095 89.4612 48.163 89.3932C48.345 89.2112 47.687 87.8672 47.417 87.8672C47.29 87.8672 47.378 88.2382 47.613 88.6912ZM50.096 93.2672C52.626 97.9572 58.853 109.557 61.727 114.933C63.452 118.16 65.551 122.06 66.393 123.6C67.235 125.14 68.558 127.6 69.334 129.067C70.109 130.533 70.827 131.853 70.931 132C71.101 132.241 72.044 133.999 74.937 139.467C75.481 140.493 76.176 141.776 76.483 142.318C77.094 143.398 79.695 148.131 80.889 150.337C81.304 151.105 81.63 151.766 81.612 151.806C81.188 152.754 81.729 152.797 96.132 152.933L110.168 153.067L112.302 157.2C113.475 159.473 116.287 164.947 118.551 169.365L122.667 177.396L122.732 232.831C122.793 283.448 122.804 284.761 122.867 247.933L122.935 207.6H133.993H145.052L145.126 211.267C145.167 213.283 145.158 204.814 145.106 192.446L145.012 169.959L143.206 166.18C138.521 156.381 137.528 154.387 137.242 154.204C137.072 154.096 137.026 154.006 137.14 154.004C137.254 154.002 137.161 153.64 136.933 153.2L136.52 152.4H123.217H109.915L104.87 142.6C102.095 137.21 95.036 123.47 89.182 112.067L78.538 91.3332H63.796H49.053L50.096 93.2672ZM145.194 244.667C145.194 256.473 145.227 261.303 145.267 255.4C145.307 249.497 145.307 239.837 145.267 233.933C145.227 228.03 145.194 232.86 145.194 244.667Z" fill="#3CBCBC"/>
</svg>
